{
    "asset" : {
        "generator" : "Khronos glTF Blender I/O v3.3.27",
        "version" : "2.0"
    },
    "scene" : 0,
    "scenes" : [
        {
            "name" : "Scene",
            "nodes" : [
                0
            ]
        }
    ],
    "nodes" : [
        {
            "mesh" : 0,
            "name" : "Black_3D_Piece-material.004",
            "rotation" : [
                -0.7071068286895752,
                0,
                0,
                0.7071067094802856
            ],
            "scale" : [
                0.006778581999242306,
                0.00677858293056488,
                0.008498323149979115
            ],
            "translation" : [
                1.533282995223999,
                1.9747447967529297,
                -3.802640676498413
            ]
        }
    ],
    "materials" : [
        {
            "doubleSided" : true,
            "name" : "Black.001",
            "pbrMetallicRoughness" : {
                "baseColorFactor" : [
                    0.1262180060148239,
                    0.1262180060148239,
                    0.1262180060148239,
                    1
                ],
                "metallicFactor" : 0,
                "roughnessFactor" : 0.6000000238418579
            }
        }
    ],
    "meshes" : [
        {
            "name" : "Black_3D_Piece-material.010",
            "primitives" : [
                {
                    "attributes" : {
                        "POSITION" : 0,
                        "NORMAL" : 1,
                        "TEXCOORD_0" : 2,
                        "TEXCOORD_1" : 3
                    },
                    "indices" : 4,
                    "material" : 0
                }
            ]
        }
    ],
    "accessors" : [
        {
            "bufferView" : 0,
            "componentType" : 5126,
            "count" : 53725,
            "max" : [
                76.34445190429688,
                84.4628677368164,
                244.12559509277344
            ],
            "min" : [
                -76.70968627929688,
                -80.94660186767578,
                -232.10940551757812
            ],
            "type" : "VEC3"
        },
        {
            "bufferView" : 1,
            "componentType" : 5126,
            "count" : 53725,
            "type" : "VEC3"
        },
        {
            "bufferView" : 2,
            "componentType" : 5126,
            "count" : 53725,
            "type" : "VEC2"
        },
        {
            "bufferView" : 3,
            "componentType" : 5126,
            "count" : 53725,
            "type" : "VEC2"
        },
        {
            "bufferView" : 4,
            "componentType" : 5123,
            "count" : 210819,
            "type" : "SCALAR"
        }
    ],
    "bufferViews" : [
        {
            "buffer" : 0,
            "byteLength" : 644700,
            "byteOffset" : 0,
            "target" : 34962
        },
        {
            "buffer" : 0,
            "byteLength" : 644700,
            "byteOffset" : 644700,
            "target" : 34962
        },
        {
            "buffer" : 0,
            "byteLength" : 429800,
            "byteOffset" : 1289400,
            "target" : 34962
        },
        {
            "buffer" : 0,
            "byteLength" : 429800,
            "byteOffset" : 1719200,
            "target" : 34962
        },
        {
            "buffer" : 0,
            "byteLength" : 421638,
            "byteOffset" : 2149000,
            "target" : 34963
        }
    ],
    "buffers" : [
        {
            "byteLength" : 2570640,
            "uri" : "data:application/octet-stream;base64,"
        }
    ]
}
