{
    "asset" : {
        "generator" : "Khronos glTF Blender I/O v3.3.27",
        "version" : "2.0"
    },
    "scene" : 0,
    "scenes" : [
        {
            "name" : "Scene",
            "nodes" : [
                0
            ]
        }
    ],
    "nodes" : [
        {
            "mesh" : 0,
            "name" : "Black_3D_Piece-material",
            "rotation" : [
                -0.7071068286895752,
                0,
                0,
                0.7071067094802856
            ],
            "scale" : [
                0.008171867579221725,
                0.0081718685105443,
                0.008498323149979115
            ],
            "translation" : [
                -4.679460048675537,
                1.164406657218933,
                -3.730503797531128
            ]
        }
    ],
    "materials" : [
        {
            "doubleSided" : true,
            "name" : "Black.001",
            "pbrMetallicRoughness" : {
                "baseColorFactor" : [
                    0.1262180060148239,
                    0.1262180060148239,
                    0.1262180060148239,
                    1
                ],
                "metallicFactor" : 0,
                "roughnessFactor" : 0.6000000238418579
            }
        }
    ],
    "meshes" : [
        {
            "name" : "Black_3D_Piece-material.006",
            "primitives" : [
                {
                    "attributes" : {
                        "POSITION" : 0,
                        "NORMAL" : 1,
                        "TEXCOORD_0" : 2,
                        "TEXCOORD_1" : 3
                    },
                    "indices" : 4,
                    "material" : 0
                }
            ]
        }
    ],
    "accessors" : [
        {
            "bufferView" : 0,
            "componentType" : 5126,
            "count" : 9244,
            "max" : [
                51.840091705322266,
                63.62123107910156,
                129.96539306640625
            ],
            "min" : [
                -52.94794845581055,
                -58.31774139404297,
                -136.75680541992188
            ],
            "type" : "VEC3"
        },
        {
            "bufferView" : 1,
            "componentType" : 5126,
            "count" : 9244,
            "type" : "VEC3"
        },
        {
            "bufferView" : 2,
            "componentType" : 5126,
            "count" : 9244,
            "type" : "VEC2"
        },
        {
            "bufferView" : 3,
            "componentType" : 5126,
            "count" : 9244,
            "type" : "VEC2"
        },
        {
            "bufferView" : 4,
            "componentType" : 5123,
            "count" : 32484,
            "type" : "SCALAR"
        }
    ],
    "bufferViews" : [
        {
            "buffer" : 0,
            "byteLength" : 110928,
            "byteOffset" : 0,
            "target" : 34962
        },
        {
            "buffer" : 0,
            "byteLength" : 110928,
            "byteOffset" : 110928,
            "target" : 34962
        },
        {
            "buffer" : 0,
            "byteLength" : 73952,
            "byteOffset" : 221856,
            "target" : 34962
        },
        {
            "buffer" : 0,
            "byteLength" : 73952,
            "byteOffset" : 295808,
            "target" : 34962
        },
        {
            "buffer" : 0,
            "byteLength" : 64968,
            "byteOffset" : 369760,
            "target" : 34963
        }
    ],
    "buffers" : [
        {
            "byteLength" : 434728,
            "uri" : "data:application/octet-stream;base64,"
        }
    ]
}
