{
    "asset" : {
        "generator" : "Khronos glTF Blender I/O v3.3.27",
        "version" : "2.0"
    },
    "scene" : 0,
    "scenes" : [
        {
            "name" : "Scene",
            "nodes" : [
                0
            ]
        }
    ],
    "nodes" : [
        {
            "mesh" : 0,
            "name" : "Black_3D_Piece-material.002",
            "rotation" : [
                -0.7071068286895752,
                0,
                0,
                0.7071067094802856
            ],
            "scale" : [
                0.00849832221865654,
                0.008498323149979115,
                0.008498323149979115
            ],
            "translation" : [
                3.323035955429077,
                0.7176209688186646,
                -3.706458568572998
            ]
        }
    ],
    "materials" : [
        {
            "doubleSided" : true,
            "name" : "Black",
            "pbrMetallicRoughness" : {
                "baseColorFactor" : [
                    0.1262180060148239,
                    0.1262180060148239,
                    0.1262180060148239,
                    1
                ],
                "metallicFactor" : 0,
                "roughnessFactor" : 0.6000000238418579
            }
        }
    ],
    "meshes" : [
        {
            "name" : "Black_3D_Piece-material.002",
            "primitives" : [
                {
                    "attributes" : {
                        "POSITION" : 0,
                        "NORMAL" : 1,
                        "TEXCOORD_0" : 2,
                        "TEXCOORD_1" : 3
                    },
                    "indices" : 4,
                    "material" : 0
                }
            ]
        }
    ],
    "accessors" : [
        {
            "bufferView" : 0,
            "componentType" : 5126,
            "count" : 22002,
            "max" : [
                42.87445068359375,
                67.0272216796875,
                159.89599609375
            ],
            "min" : [
                -43.40739822387695,
                -51.139888763427734,
                -84.18338012695312
            ],
            "type" : "VEC3"
        },
        {
            "bufferView" : 1,
            "componentType" : 5126,
            "count" : 22002,
            "type" : "VEC3"
        },
        {
            "bufferView" : 2,
            "componentType" : 5126,
            "count" : 22002,
            "type" : "VEC2"
        },
        {
            "bufferView" : 3,
            "componentType" : 5126,
            "count" : 22002,
            "type" : "VEC2"
        },
        {
            "bufferView" : 4,
            "componentType" : 5123,
            "count" : 92490,
            "type" : "SCALAR"
        }
    ],
    "bufferViews" : [
        {
            "buffer" : 0,
            "byteLength" : 264024,
            "byteOffset" : 0,
            "target" : 34962
        },
        {
            "buffer" : 0,
            "byteLength" : 264024,
            "byteOffset" : 264024,
            "target" : 34962
        },
        {
            "buffer" : 0,
            "byteLength" : 176016,
            "byteOffset" : 528048,
            "target" : 34962
        },
        {
            "buffer" : 0,
            "byteLength" : 176016,
            "byteOffset" : 704064,
            "target" : 34962
        },
        {
            "buffer" : 0,
            "byteLength" : 184980,
            "byteOffset" : 880080,
            "target" : 34963
        }
    ],
    "buffers" : [
        {
            "byteLength" : 1065060,
            "uri" : "data:application/octet-stream;base64,"
        }
    ]
}
