{
    "asset" : {
        "generator" : "Khronos glTF Blender I/O v3.3.27",
        "version" : "2.0"
    },
    "scene" : 0,
    "scenes" : [
        {
            "name" : "Scene",
            "nodes" : [
                0
            ]
        }
    ],
    "nodes" : [
        {
            "mesh" : 0,
            "name" : "Black_3D_Piece-material.001",
            "rotation" : [
                -0.7071068286895752,
                0,
                0,
                0.7071067094802856
            ],
            "scale" : [
                0.007878964766860008,
                0.007878965698182583,
                0.008498323149979115
            ],
            "translation" : [
                0.014119490049779415,
                1.5858237743377686,
                -3.8508965969085693
            ]
        }
    ],
    "materials" : [
        {
            "doubleSided" : true,
            "name" : "Black.001",
            "pbrMetallicRoughness" : {
                "baseColorFactor" : [
                    0.1262180060148239,
                    0.1262180060148239,
                    0.1262180060148239,
                    1
                ],
                "metallicFactor" : 0,
                "roughnessFactor" : 0.6000000238418579
            }
        }
    ],
    "meshes" : [
        {
            "name" : "Black_3D_Piece-material.007",
            "primitives" : [
                {
                    "attributes" : {
                        "POSITION" : 0,
                        "NORMAL" : 1,
                        "TEXCOORD_0" : 2,
                        "TEXCOORD_1" : 3
                    },
                    "indices" : 4,
                    "material" : 0
                }
            ]
        }
    ],
    "accessors" : [
        {
            "bufferView" : 0,
            "componentType" : 5126,
            "count" : 45323,
            "max" : [
                75.32884216308594,
                64.15583038330078,
                233.51449584960938
            ],
            "min" : [
                -75.22284698486328,
                -75.98307037353516,
                -186.34500122070312
            ],
            "type" : "VEC3"
        },
        {
            "bufferView" : 1,
            "componentType" : 5126,
            "count" : 45323,
            "type" : "VEC3"
        },
        {
            "bufferView" : 2,
            "componentType" : 5126,
            "count" : 45323,
            "type" : "VEC2"
        },
        {
            "bufferView" : 3,
            "componentType" : 5126,
            "count" : 45323,
            "type" : "VEC2"
        },
        {
            "bufferView" : 4,
            "componentType" : 5123,
            "count" : 161244,
            "type" : "SCALAR"
        }
    ],
    "bufferViews" : [
        {
            "buffer" : 0,
            "byteLength" : 543876,
            "byteOffset" : 0,
            "target" : 34962
        },
        {
            "buffer" : 0,
            "byteLength" : 543876,
            "byteOffset" : 543876,
            "target" : 34962
        },
        {
            "buffer" : 0,
            "byteLength" : 362584,
            "byteOffset" : 1087752,
            "target" : 34962
        },
        {
            "buffer" : 0,
            "byteLength" : 362584,
            "byteOffset" : 1450336,
            "target" : 34962
        },
        {
            "buffer" : 0,
            "byteLength" : 322488,
            "byteOffset" : 1812920,
            "target" : 34963
        }
    ],
    "buffers" : [
        {
            "byteLength" : 2135408,
            "uri" : "data:application/octet-stream;base64,"
        }
    ]
}
