{
    "asset" : {
        "generator" : "Khronos glTF Blender I/O v3.3.27",
        "version" : "2.0"
    },
    "scene" : 0,
    "scenes" : [
        {
            "name" : "Scene",
            "nodes" : [
                0
            ]
        }
    ],
    "nodes" : [
        {
            "mesh" : 0,
            "name" : "Black_3D_Piece-material.003",
            "rotation" : [
                -0.5,
                -0.5000000596046448,
                -0.5,
                0.49999991059303284
            ],
            "scale" : [
                0.008843483403325081,
                0.008843482472002506,
                0.008498323149979115
            ],
            "translation" : [
                -3.210675001144409,
                0.7639673352241516,
                -3.6738333702087402
            ]
        }
    ],
    "materials" : [
        {
            "doubleSided" : true,
            "name" : "Black.001",
            "pbrMetallicRoughness" : {
                "baseColorFactor" : [
                    0.1262180060148239,
                    0.1262180060148239,
                    0.1262180060148239,
                    1
                ],
                "metallicFactor" : 0,
                "roughnessFactor" : 0.6000000238418579
            }
        }
    ],
    "meshes" : [
        {
            "name" : "Black_3D_Piece-material.009",
            "primitives" : [
                {
                    "attributes" : {
                        "POSITION" : 0,
                        "NORMAL" : 1,
                        "TEXCOORD_0" : 2,
                        "TEXCOORD_1" : 3
                    },
                    "indices" : 4,
                    "material" : 0
                }
            ]
        }
    ],
    "accessors" : [
        {
            "bufferView" : 0,
            "componentType" : 5126,
            "count" : 18457,
            "max" : [
                47.48086166381836,
                59.36880874633789,
                239.9102020263672
            ],
            "min" : [
                -66.35717010498047,
                -56.78850173950195,
                -89.6369400024414
            ],
            "type" : "VEC3"
        },
        {
            "bufferView" : 1,
            "componentType" : 5126,
            "count" : 18457,
            "type" : "VEC3"
        },
        {
            "bufferView" : 2,
            "componentType" : 5126,
            "count" : 18457,
            "type" : "VEC2"
        },
        {
            "bufferView" : 3,
            "componentType" : 5126,
            "count" : 18457,
            "type" : "VEC2"
        },
        {
            "bufferView" : 4,
            "componentType" : 5123,
            "count" : 61815,
            "type" : "SCALAR"
        }
    ],
    "bufferViews" : [
        {
            "buffer" : 0,
            "byteLength" : 221484,
            "byteOffset" : 0,
            "target" : 34962
        },
        {
            "buffer" : 0,
            "byteLength" : 221484,
            "byteOffset" : 221484,
            "target" : 34962
        },
        {
            "buffer" : 0,
            "byteLength" : 147656,
            "byteOffset" : 442968,
            "target" : 34962
        },
        {
            "buffer" : 0,
            "byteLength" : 147656,
            "byteOffset" : 590624,
            "target" : 34962
        },
        {
            "buffer" : 0,
            "byteLength" : 123630,
            "byteOffset" : 738280,
            "target" : 34963
        }
    ],
    "buffers" : [
        {
            "byteLength" : 861912,
            "uri" : "data:application/octet-stream;base64,"
        }
    ]
}
