{
    "asset" : {
        "generator" : "Khronos glTF Blender I/O v3.3.27",
        "version" : "2.0"
    },
    "scene" : 0,
    "scenes" : [
        {
            "name" : "Scene",
            "nodes" : [
                0
            ]
        }
    ],
    "nodes" : [
        {
            "mesh" : 0,
            "name" : "Black_3D_Piece-material.005",
            "rotation" : [
                -0.7071068286895752,
                0,
                0,
                0.7071067094802856
            ],
            "scale" : [
                0.009248504415154457,
                0.009248505346477032,
                0.008498323149979115
            ],
            "translation" : [
                -1.5973199605941772,
                1.2371596097946167,
                -3.7092087268829346
            ]
        }
    ],
    "materials" : [
        {
            "doubleSided" : true,
            "name" : "Black.001",
            "pbrMetallicRoughness" : {
                "baseColorFactor" : [
                    0.1262180060148239,
                    0.1262180060148239,
                    0.1262180060148239,
                    1
                ],
                "metallicFactor" : 0,
                "roughnessFactor" : 0.6000000238418579
            }
        }
    ],
    "meshes" : [
        {
            "name" : "Black_3D_Piece-material.011",
            "primitives" : [
                {
                    "attributes" : {
                        "POSITION" : 0,
                        "NORMAL" : 1,
                        "TEXCOORD_0" : 2,
                        "TEXCOORD_1" : 3
                    },
                    "indices" : 4,
                    "material" : 0
                }
            ]
        }
    ],
    "accessors" : [
        {
            "bufferView" : 0,
            "componentType" : 5126,
            "count" : 34245,
            "max" : [
                59.66373825073242,
                73.85665130615234,
                193.88450622558594
            ],
            "min" : [
                -60.092681884765625,
                -54.7706184387207,
                -145.31759643554688
            ],
            "type" : "VEC3"
        },
        {
            "bufferView" : 1,
            "componentType" : 5126,
            "count" : 34245,
            "type" : "VEC3"
        },
        {
            "bufferView" : 2,
            "componentType" : 5126,
            "count" : 34245,
            "type" : "VEC2"
        },
        {
            "bufferView" : 3,
            "componentType" : 5126,
            "count" : 34245,
            "type" : "VEC2"
        },
        {
            "bufferView" : 4,
            "componentType" : 5123,
            "count" : 128055,
            "type" : "SCALAR"
        }
    ],
    "bufferViews" : [
        {
            "buffer" : 0,
            "byteLength" : 410940,
            "byteOffset" : 0,
            "target" : 34962
        },
        {
            "buffer" : 0,
            "byteLength" : 410940,
            "byteOffset" : 410940,
            "target" : 34962
        },
        {
            "buffer" : 0,
            "byteLength" : 273960,
            "byteOffset" : 821880,
            "target" : 34962
        },
        {
            "buffer" : 0,
            "byteLength" : 273960,
            "byteOffset" : 1095840,
            "target" : 34962
        },
        {
            "buffer" : 0,
            "byteLength" : 256110,
            "byteOffset" : 1369800,
            "target" : 34963
        }
    ],
    "buffers" : [
        {
            "byteLength" : 1625912,
            "uri" : "data:application/octet-stream;base64,"
        }
    ]
}
