{
    "asset" : {
        "generator" : "Khronos glTF Blender I/O v3.3.27",
        "version" : "2.0"
    },
    "scene" : 0,
    "scenes" : [
        {
            "name" : "Scene",
            "nodes" : [
                0
            ]
        }
    ],
    "nodes" : [
        {
            "mesh" : 0,
            "name" : "White_3D_Piece-material.005",
            "rotation" : [
                -0.7071068286895752,
                0,
                0,
                0.7071067094802856
            ],
            "scale" : [
                0.009248504415154457,
                0.009248505346477032,
                0.008498323149979115
            ],
            "translation" : [
                -1.6148409843444824,
                1.2371597290039062,
                -2.268266439437866
            ]
        }
    ],
    "materials" : [
        {
            "doubleSided" : true,
            "name" : "White.001",
            "pbrMetallicRoughness" : {
                "baseColorFactor" : [
                    0.800000011920929,
                    0.800000011920929,
                    0.800000011920929,
                    1
                ],
                "metallicFactor" : 0,
                "roughnessFactor" : 0.6000000238418579
            }
        }
    ],
    "meshes" : [
        {
            "name" : "White_3D_Piece-material.011",
            "primitives" : [
                {
                    "attributes" : {
                        "POSITION" : 0,
                        "NORMAL" : 1,
                        "TEXCOORD_0" : 2,
                        "TEXCOORD_1" : 3
                    },
                    "indices" : 4,
                    "material" : 0
                }
            ]
        }
    ],
    "accessors" : [
        {
            "bufferView" : 0,
            "componentType" : 5126,
            "count" : 34913,
            "max" : [
                60.05751037597656,
                72.94918823242188,
                193.9010009765625
            ],
            "min" : [
                -59.333038330078125,
                -55.127681732177734,
                -145.31759643554688
            ],
            "type" : "VEC3"
        },
        {
            "bufferView" : 1,
            "componentType" : 5126,
            "count" : 34913,
            "type" : "VEC3"
        },
        {
            "bufferView" : 2,
            "componentType" : 5126,
            "count" : 34913,
            "type" : "VEC2"
        },
        {
            "bufferView" : 3,
            "componentType" : 5126,
            "count" : 34913,
            "type" : "VEC2"
        },
        {
            "bufferView" : 4,
            "componentType" : 5123,
            "count" : 110907,
            "type" : "SCALAR"
        }
    ],
    "bufferViews" : [
        {
            "buffer" : 0,
            "byteLength" : 418956,
            "byteOffset" : 0,
            "target" : 34962
        },
        {
            "buffer" : 0,
            "byteLength" : 418956,
            "byteOffset" : 418956,
            "target" : 34962
        },
        {
            "buffer" : 0,
            "byteLength" : 279304,
            "byteOffset" : 837912,
            "target" : 34962
        },
        {
            "buffer" : 0,
            "byteLength" : 279304,
            "byteOffset" : 1117216,
            "target" : 34962
        },
        {
            "buffer" : 0,
            "byteLength" : 221814,
            "byteOffset" : 1396520,
            "target" : 34963
        }
    ],
    "buffers" : [
        {
            "byteLength" : 1618336,
            "uri" : "data:application/octet-stream;base64,"
        }
    ]
}
