{
    "asset" : {
        "generator" : "Khronos glTF Blender I/O v3.3.27",
        "version" : "2.0"
    },
    "scene" : 0,
    "scenes" : [
        {
            "name" : "Scene",
            "nodes" : [
                0
            ]
        }
    ],
    "nodes" : [
        {
            "mesh" : 0,
            "name" : "White_3D_Piece-material.001",
            "rotation" : [
                -0.7071068286895752,
                0,
                0,
                0.7071067094802856
            ],
            "scale" : [
                0.007878964766860008,
                0.007878965698182583,
                0.008498323149979115
            ],
            "translation" : [
                -0.001210635993629694,
                1.585823893547058,
                -2.3946244716644287
            ]
        }
    ],
    "materials" : [
        {
            "doubleSided" : true,
            "name" : "White.001",
            "pbrMetallicRoughness" : {
                "baseColorFactor" : [
                    0.800000011920929,
                    0.800000011920929,
                    0.800000011920929,
                    1
                ],
                "metallicFactor" : 0,
                "roughnessFactor" : 0.6000000238418579
            }
        }
    ],
    "meshes" : [
        {
            "name" : "White_3D_Piece-material.007",
            "primitives" : [
                {
                    "attributes" : {
                        "POSITION" : 0,
                        "NORMAL" : 1,
                        "TEXCOORD_0" : 2,
                        "TEXCOORD_1" : 3
                    },
                    "indices" : 4,
                    "material" : 0
                }
            ]
        }
    ],
    "accessors" : [
        {
            "bufferView" : 0,
            "componentType" : 5126,
            "count" : 48989,
            "max" : [
                75.518310546875,
                64.38538360595703,
                232.62770080566406
            ],
            "min" : [
                -74.82112121582031,
                -75.75789642333984,
                -186.34500122070312
            ],
            "type" : "VEC3"
        },
        {
            "bufferView" : 1,
            "componentType" : 5126,
            "count" : 48989,
            "type" : "VEC3"
        },
        {
            "bufferView" : 2,
            "componentType" : 5126,
            "count" : 48989,
            "type" : "VEC2"
        },
        {
            "bufferView" : 3,
            "componentType" : 5126,
            "count" : 48989,
            "type" : "VEC2"
        },
        {
            "bufferView" : 4,
            "componentType" : 5123,
            "count" : 161820,
            "type" : "SCALAR"
        }
    ],
    "bufferViews" : [
        {
            "buffer" : 0,
            "byteLength" : 587868,
            "byteOffset" : 0,
            "target" : 34962
        },
        {
            "buffer" : 0,
            "byteLength" : 587868,
            "byteOffset" : 587868,
            "target" : 34962
        },
        {
            "buffer" : 0,
            "byteLength" : 391912,
            "byteOffset" : 1175736,
            "target" : 34962
        },
        {
            "buffer" : 0,
            "byteLength" : 391912,
            "byteOffset" : 1567648,
            "target" : 34962
        },
        {
            "buffer" : 0,
            "byteLength" : 323640,
            "byteOffset" : 1959560,
            "target" : 34963
        }
    ],
    "buffers" : [
        {
            "byteLength" : 2283200,
            "uri" : "data:application/octet-stream;base64,"
        }
    ]
}
