{
    "asset" : {
        "generator" : "Khronos glTF Blender I/O v3.3.27",
        "version" : "2.0"
    },
    "scene" : 0,
    "scenes" : [
        {
            "name" : "Scene",
            "nodes" : [
                0
            ]
        }
    ],
    "nodes" : [
        {
            "mesh" : 0,
            "name" : "White_3D_Piece-material.002",
            "rotation" : [
                -0.7071068286895752,
                0,
                0,
                0.7071067094802856
            ],
            "scale" : [
                0.00849832221865654,
                0.008498323149979115,
                0.008498323149979115
            ],
            "translation" : [
                3.3361759185791016,
                0.7176211476325989,
                -2.272087335586548
            ]
        }
    ],
    "materials" : [
        {
            "doubleSided" : true,
            "name" : "White.001",
            "pbrMetallicRoughness" : {
                "baseColorFactor" : [
                    0.800000011920929,
                    0.800000011920929,
                    0.800000011920929,
                    1
                ],
                "metallicFactor" : 0,
                "roughnessFactor" : 0.6000000238418579
            }
        }
    ],
    "meshes" : [
        {
            "name" : "White_3D_Piece-material.008",
            "primitives" : [
                {
                    "attributes" : {
                        "POSITION" : 0,
                        "NORMAL" : 1,
                        "TEXCOORD_0" : 2,
                        "TEXCOORD_1" : 3
                    },
                    "indices" : 4,
                    "material" : 0
                }
            ]
        }
    ],
    "accessors" : [
        {
            "bufferView" : 0,
            "componentType" : 5126,
            "count" : 16244,
            "max" : [
                43.144989013671875,
                66.61454772949219,
                158.9219970703125
            ],
            "min" : [
                -43.139549255371094,
                -51.64957046508789,
                -84.1833724975586
            ],
            "type" : "VEC3"
        },
        {
            "bufferView" : 1,
            "componentType" : 5126,
            "count" : 16244,
            "type" : "VEC3"
        },
        {
            "bufferView" : 2,
            "componentType" : 5126,
            "count" : 16244,
            "type" : "VEC2"
        },
        {
            "bufferView" : 3,
            "componentType" : 5126,
            "count" : 16244,
            "type" : "VEC2"
        },
        {
            "bufferView" : 4,
            "componentType" : 5123,
            "count" : 56454,
            "type" : "SCALAR"
        }
    ],
    "bufferViews" : [
        {
            "buffer" : 0,
            "byteLength" : 194928,
            "byteOffset" : 0,
            "target" : 34962
        },
        {
            "buffer" : 0,
            "byteLength" : 194928,
            "byteOffset" : 194928,
            "target" : 34962
        },
        {
            "buffer" : 0,
            "byteLength" : 129952,
            "byteOffset" : 389856,
            "target" : 34962
        },
        {
            "buffer" : 0,
            "byteLength" : 129952,
            "byteOffset" : 519808,
            "target" : 34962
        },
        {
            "buffer" : 0,
            "byteLength" : 112908,
            "byteOffset" : 649760,
            "target" : 34963
        }
    ],
    "buffers" : [
        {
            "byteLength" : 762668,
            "uri" : "data:application/octet-stream;base64,"
        }
    ]
}
