{
    "asset" : {
        "generator" : "Khronos glTF Blender I/O v3.3.27",
        "version" : "2.0"
    },
    "scene" : 0,
    "scenes" : [
        {
            "name" : "Scene",
            "nodes" : [
                0
            ]
        }
    ],
    "nodes" : [
        {
            "mesh" : 0,
            "name" : "White_3D_Piece-material.004",
            "rotation" : [
                -0.7071068286895752,
                0,
                0,
                0.7071067094802856
            ],
            "scale" : [
                0.006778581999242306,
                0.00677858293056488,
                0.008498323149979115
            ],
            "translation" : [
                1.5143029689788818,
                1.9747449159622192,
                -2.3434484004974365
            ]
        }
    ],
    "materials" : [
        {
            "doubleSided" : true,
            "name" : "White.001",
            "pbrMetallicRoughness" : {
                "baseColorFactor" : [
                    0.800000011920929,
                    0.800000011920929,
                    0.800000011920929,
                    1
                ],
                "metallicFactor" : 0,
                "roughnessFactor" : 0.6000000238418579
            }
        }
    ],
    "meshes" : [
        {
            "name" : "White_3D_Piece-material.010",
            "primitives" : [
                {
                    "attributes" : {
                        "POSITION" : 0,
                        "NORMAL" : 1,
                        "TEXCOORD_0" : 2,
                        "TEXCOORD_1" : 3
                    },
                    "indices" : 4,
                    "material" : 0
                }
            ]
        }
    ],
    "accessors" : [
        {
            "bufferView" : 0,
            "componentType" : 5126,
            "count" : 37523,
            "max" : [
                77.10877227783203,
                85.41278076171875,
                244.12559509277344
            ],
            "min" : [
                -75.69799041748047,
                -80.50614929199219,
                -232.10940551757812
            ],
            "type" : "VEC3"
        },
        {
            "bufferView" : 1,
            "componentType" : 5126,
            "count" : 37523,
            "type" : "VEC3"
        },
        {
            "bufferView" : 2,
            "componentType" : 5126,
            "count" : 37523,
            "type" : "VEC2"
        },
        {
            "bufferView" : 3,
            "componentType" : 5126,
            "count" : 37523,
            "type" : "VEC2"
        },
        {
            "bufferView" : 4,
            "componentType" : 5123,
            "count" : 133662,
            "type" : "SCALAR"
        }
    ],
    "bufferViews" : [
        {
            "buffer" : 0,
            "byteLength" : 450276,
            "byteOffset" : 0,
            "target" : 34962
        },
        {
            "buffer" : 0,
            "byteLength" : 450276,
            "byteOffset" : 450276,
            "target" : 34962
        },
        {
            "buffer" : 0,
            "byteLength" : 300184,
            "byteOffset" : 900552,
            "target" : 34962
        },
        {
            "buffer" : 0,
            "byteLength" : 300184,
            "byteOffset" : 1200736,
            "target" : 34962
        },
        {
            "buffer" : 0,
            "byteLength" : 267324,
            "byteOffset" : 1500920,
            "target" : 34963
        }
    ],
    "buffers" : [
        {
            "byteLength" : 1768244,
            "uri" : "data:application/octet-stream;base64,"
        }
    ]
}
