{
    "asset" : {
        "generator" : "Khronos glTF Blender I/O v3.3.27",
        "version" : "2.0"
    },
    "scene" : 0,
    "scenes" : [
        {
            "name" : "Scene",
            "nodes" : [
                0
            ]
        }
    ],
    "nodes" : [
        {
            "mesh" : 0,
            "name" : "White_3D_Piece-material.003",
            "rotation" : [
                -0.5,
                0.5000000596046448,
                0.5,
                0.49999991059303284
            ],
            "scale" : [
                0.008843483403325081,
                0.008843482472002506,
                0.008498323149979115
            ],
            "translation" : [
                -3.1931540966033936,
                0.7639675140380859,
                -2.2285122871398926
            ]
        }
    ],
    "materials" : [
        {
            "doubleSided" : true,
            "name" : "White.001",
            "pbrMetallicRoughness" : {
                "baseColorFactor" : [
                    0.800000011920929,
                    0.800000011920929,
                    0.800000011920929,
                    1
                ],
                "metallicFactor" : 0,
                "roughnessFactor" : 0.6000000238418579
            }
        }
    ],
    "meshes" : [
        {
            "name" : "White_3D_Piece-material.009",
            "primitives" : [
                {
                    "attributes" : {
                        "POSITION" : 0,
                        "NORMAL" : 1,
                        "TEXCOORD_0" : 2,
                        "TEXCOORD_1" : 3
                    },
                    "indices" : 4,
                    "material" : 0
                }
            ]
        }
    ],
    "accessors" : [
        {
            "bufferView" : 0,
            "componentType" : 5126,
            "count" : 18579,
            "max" : [
                65.51641082763672,
                57.83475112915039,
                239.9102020263672
            ],
            "min" : [
                -48.71173095703125,
                -57.55305099487305,
                -89.6369400024414
            ],
            "type" : "VEC3"
        },
        {
            "bufferView" : 1,
            "componentType" : 5126,
            "count" : 18579,
            "type" : "VEC3"
        },
        {
            "bufferView" : 2,
            "componentType" : 5126,
            "count" : 18579,
            "type" : "VEC2"
        },
        {
            "bufferView" : 3,
            "componentType" : 5126,
            "count" : 18579,
            "type" : "VEC2"
        },
        {
            "bufferView" : 4,
            "componentType" : 5123,
            "count" : 57807,
            "type" : "SCALAR"
        }
    ],
    "bufferViews" : [
        {
            "buffer" : 0,
            "byteLength" : 222948,
            "byteOffset" : 0,
            "target" : 34962
        },
        {
            "buffer" : 0,
            "byteLength" : 222948,
            "byteOffset" : 222948,
            "target" : 34962
        },
        {
            "buffer" : 0,
            "byteLength" : 148632,
            "byteOffset" : 445896,
            "target" : 34962
        },
        {
            "buffer" : 0,
            "byteLength" : 148632,
            "byteOffset" : 594528,
            "target" : 34962
        },
        {
            "buffer" : 0,
            "byteLength" : 115614,
            "byteOffset" : 743160,
            "target" : 34963
        }
    ],
    "buffers" : [
        {
            "byteLength" : 858776,
            "uri" : "data:application/octet-stream;base64,"
        }
    ]
}
