{
    "asset" : {
        "generator" : "Khronos glTF Blender I/O v3.3.27",
        "version" : "2.0"
    },
    "scene" : 0,
    "scenes" : [
        {
            "name" : "Scene",
            "nodes" : [
                0
            ]
        }
    ],
    "nodes" : [
        {
            "mesh" : 0,
            "name" : "White_3D_Piece-material",
            "rotation" : [
                -0.7071068286895752,
                0,
                0,
                0.7071067094802856
            ],
            "scale" : [
                0.008171867579221725,
                0.0081718685105443,
                0.008498323149979115
            ],
            "translation" : [
                -4.693148136138916,
                1.1644067764282227,
                -2.2856075763702393
            ]
        }
    ],
    "materials" : [
        {
            "doubleSided" : true,
            "name" : "White.001",
            "pbrMetallicRoughness" : {
                "baseColorFactor" : [
                    0.800000011920929,
                    0.800000011920929,
                    0.800000011920929,
                    1
                ],
                "metallicFactor" : 0,
                "roughnessFactor" : 0.6000000238418579
            }
        }
    ],
    "meshes" : [
        {
            "name" : "White_3D_Piece-material.006",
            "primitives" : [
                {
                    "attributes" : {
                        "POSITION" : 0,
                        "NORMAL" : 1,
                        "TEXCOORD_0" : 2,
                        "TEXCOORD_1" : 3
                    },
                    "indices" : 4,
                    "material" : 0
                }
            ]
        }
    ],
    "accessors" : [
        {
            "bufferView" : 0,
            "componentType" : 5126,
            "count" : 11485,
            "max" : [
                52.22468948364258,
                63.07754135131836,
                129.96539306640625
            ],
            "min" : [
                -52.77579879760742,
                -59.70193099975586,
                -136.75680541992188
            ],
            "type" : "VEC3"
        },
        {
            "bufferView" : 1,
            "componentType" : 5126,
            "count" : 11485,
            "type" : "VEC3"
        },
        {
            "bufferView" : 2,
            "componentType" : 5126,
            "count" : 11485,
            "type" : "VEC2"
        },
        {
            "bufferView" : 3,
            "componentType" : 5126,
            "count" : 11485,
            "type" : "VEC2"
        },
        {
            "bufferView" : 4,
            "componentType" : 5123,
            "count" : 33396,
            "type" : "SCALAR"
        }
    ],
    "bufferViews" : [
        {
            "buffer" : 0,
            "byteLength" : 137820,
            "byteOffset" : 0,
            "target" : 34962
        },
        {
            "buffer" : 0,
            "byteLength" : 137820,
            "byteOffset" : 137820,
            "target" : 34962
        },
        {
            "buffer" : 0,
            "byteLength" : 91880,
            "byteOffset" : 275640,
            "target" : 34962
        },
        {
            "buffer" : 0,
            "byteLength" : 91880,
            "byteOffset" : 367520,
            "target" : 34962
        },
        {
            "buffer" : 0,
            "byteLength" : 66792,
            "byteOffset" : 459400,
            "target" : 34963
        }
    ],
    "buffers" : [
        {
            "byteLength" : 526192,
            "uri" : "data:application/octet-stream;base64,"
        }
    ]
}
